# xmcd
#
# Track frame offsets:
# 150
# 10918
# 63809
# 84168
# 106924
# 114659
# 134515
# 182386
# 215125
# 255218
# 283102
# 305236
#
# Disc length: 4413 seconds
#
# Revision: 0
# Processed by: cddbd v1.5.1PL2 Copyright (c) Steve Scherf et al.
# Submitted via: CoinsHifi v1.5e contact@coinshifi.com
#
DISCID=a2113b0c
DTITLE=Enigma - ENIGMA
DYEAR=2000
DGENRE=blues
TTITLE0=1
TTITLE1=2
TTITLE2=3
TTITLE3=4
TTITLE4=5
TTITLE5=6
TTITLE6=7
TTITLE7=8
TTITLE8=9
TTITLE9=10
TTITLE10=11
TTITLE11=12
EXTD=
EXTT0=Instrumental
EXTT1=Instrumental
EXTT2=Instrumental
EXTT3=Instrumental
EXTT4=Instrumental
EXTT5=Instrumental
EXTT6=Instrumental
EXTT7=Instrumental
EXTT8=Instrumental
EXTT9=Instrumental
EXTT10=Instrumental
EXTT11=Instrumental
PLAYORDER=
